<?xml version="1.0" encoding="iso-8859-1"?>
<!-- Generator: Adobe Illustrator 19.0.0, SVG Export Plug-In . SVG Version: 6.00 Build 0)  -->
<svg version="1.1" id="Capa_1" xmlns="http://www.w3.org/2000/svg" xmlns:xlink="http://www.w3.org/1999/xlink" x="0px" y="0px"
	 viewBox="0 0 512.016 512.016" style="enable-background:new 0 0 512.016 512.016;" xml:space="preserve">
<g>
	<g>
		<path d="M495.091,107.643L260.424,0.976c-2.816-1.301-6.016-1.301-8.832,0L16.925,107.643c-3.797,1.728-6.251,5.525-6.251,9.707
			v266.667c0,4.032,2.283,7.723,5.888,9.536l234.667,117.333c1.515,0.747,3.136,1.131,4.779,1.131c1.643,0,3.264-0.384,4.779-1.131
			l234.667-117.333c3.605-1.813,5.888-5.504,5.888-9.536V117.349C501.341,113.168,498.888,109.371,495.091,107.643z
			 M480.008,377.424l-224,112l-224-112V124.219l224-101.824l224,101.824V377.424z"/>
	</g>
</g>
<g>
	<g>
		<path d="M500.381,112.933c-2.432-5.376-8.725-7.701-14.123-5.291L256.008,212.304L25.757,107.643
			c-5.419-2.411-11.691-0.085-14.123,5.291c-2.432,5.376-0.064,11.691,5.291,14.123l234.667,106.667
			c1.408,0.64,2.901,0.96,4.416,0.96c1.515,0,3.008-0.32,4.416-0.96l234.667-106.667
			C500.445,124.624,502.813,118.309,500.381,112.933z"/>
	</g>
</g>
<g>
	<g>
		<path d="M256.008,213.349c-5.888,0-10.667,4.779-10.667,10.667v277.333c0,5.888,4.779,10.667,10.667,10.667
			s10.667-4.779,10.667-10.667V224.016C266.675,218.128,261.896,213.349,256.008,213.349z"/>
	</g>
</g>
<g>
	<g>
		<path d="M256.008,96.016c-18.539,0-32,8.981-32,21.333c0,12.352,13.461,21.333,32,21.333c18.539,0,32-8.981,32-21.333
			C288.008,104.997,274.547,96.016,256.008,96.016z"/>
	</g>
</g>
<g>
	<g>
		<path d="M202.675,234.683c-12.373,0-21.333,13.461-21.333,32c0,18.539,8.96,32,21.333,32s21.333-13.461,21.333-32
			C224.008,248.144,215.048,234.683,202.675,234.683z"/>
	</g>
</g>
<g>
	<g>
		<path d="M138.675,272.485c-12.373,0-21.333,13.461-21.333,32c0,18.539,8.96,32,21.333,32s21.333-13.461,21.333-32
			C160.008,285.947,151.048,272.485,138.675,272.485z"/>
	</g>
</g>
<g>
	<g>
		<path d="M74.675,309.349c-12.373,0-21.333,13.461-21.333,32c0,18.539,8.96,32,21.333,32s21.333-13.461,21.333-32
			C96.008,322.811,87.048,309.349,74.675,309.349z"/>
	</g>
</g>
<g>
	<g>
		<path d="M320.008,245.349c-12.373,0-21.333,13.461-21.333,32c0,18.539,8.96,32,21.333,32c12.373,0,21.333-13.461,21.333-32
			C341.341,258.811,332.381,245.349,320.008,245.349z"/>
	</g>
</g>
<g>
	<g>
		<path d="M426.675,298.683c-12.373,0-21.333,13.461-21.333,32c0,18.539,8.96,32,21.333,32c12.373,0,21.333-13.461,21.333-32
			C448.008,312.144,439.048,298.683,426.675,298.683z"/>
	</g>
</g>
<g>
</g>
<g>
</g>
<g>
</g>
<g>
</g>
<g>
</g>
<g>
</g>
<g>
</g>
<g>
</g>
<g>
</g>
<g>
</g>
<g>
</g>
<g>
</g>
<g>
</g>
<g>
</g>
<g>
</g>
</svg>
